<svg width="743" height="18" viewBox="0 0 743 18" fill="none" xmlns="http://www.w3.org/2000/svg">
<path d="M5.712 14.126C5.00267 14.126 4.33533 14 3.71 13.748C3.094 13.4867 2.55733 13.1273 2.1 12.67C1.64267 12.2127 1.28333 11.676 1.022 11.06C0.77 10.4347 0.644 9.76733 0.644 9.058C0.644 8.33933 0.77 7.672 1.022 7.056C1.28333 6.44 1.64267 5.908 2.1 5.46C2.55733 5.00267 3.094 4.648 3.71 4.396C4.326 4.13467 4.99333 4.004 5.712 4.004C6.43067 4.004 7.098 4.13467 7.714 4.396C8.33 4.648 8.862 5.00267 9.31 5.46C9.76733 5.908 10.122 6.44 10.374 7.056C10.6353 7.672 10.766 8.33933 10.766 9.058C10.766 9.76733 10.6353 10.4347 10.374 11.06C10.122 11.676 9.76733 12.2127 9.31 12.67C8.862 13.1273 8.33 13.4867 7.714 13.748C7.098 14 6.43067 14.126 5.712 14.126ZM5.922 12.082C5.00733 12.082 4.284 11.8067 3.752 11.256C3.22 10.696 2.954 9.954 2.954 9.03C2.954 8.106 3.22 7.378 3.752 6.846C4.284 6.314 5.00733 6.048 5.922 6.048C6.29533 6.048 6.664 6.11333 7.028 6.244C7.40133 6.36533 7.70467 6.538 7.938 6.762L7.546 7.63C7.322 7.42467 7.07467 7.27533 6.804 7.182C6.53333 7.07933 6.26733 7.028 6.006 7.028C5.43667 7.028 4.98867 7.20533 4.662 7.56C4.34467 7.91467 4.186 8.40933 4.186 9.044C4.186 9.66933 4.34467 10.1687 4.662 10.542C4.98867 10.906 5.43667 11.088 6.006 11.088C6.26733 11.088 6.53333 11.0413 6.804 10.948C7.07467 10.8453 7.322 10.6913 7.546 10.486L7.938 11.368C7.70467 11.5827 7.40133 11.7553 7.028 11.886C6.65467 12.0167 6.286 12.082 5.922 12.082ZM5.712 13.454C6.33733 13.454 6.91133 13.3467 7.434 13.132C7.966 12.908 8.428 12.5953 8.82 12.194C9.212 11.7927 9.51533 11.326 9.73 10.794C9.954 10.262 10.066 9.68333 10.066 9.058C10.066 8.43267 9.954 7.854 9.73 7.322C9.51533 6.79 9.212 6.328 8.82 5.936C8.428 5.53467 7.966 5.22667 7.434 5.012C6.91133 4.788 6.33733 4.676 5.712 4.676C5.08667 4.676 4.508 4.788 3.976 5.012C3.444 5.22667 2.982 5.53467 2.59 5.936C2.198 6.328 1.89 6.79 1.666 7.322C1.45133 7.854 1.344 8.43267 1.344 9.058C1.344 9.68333 1.45133 10.262 1.666 10.794C1.89 11.326 2.198 11.7927 2.59 12.194C2.982 12.5953 3.444 12.908 3.976 13.132C4.508 13.3467 5.08667 13.454 5.712 13.454ZM19.6784 14.126C18.9691 14.126 18.3484 13.9813 17.8164 13.692C17.2938 13.3933 16.8878 12.9687 16.5984 12.418C16.3184 11.858 16.1784 11.1953 16.1784 10.43C16.1784 9.674 16.3231 9.02533 16.6124 8.484C16.9018 7.94267 17.3078 7.532 17.8304 7.252C18.3531 6.96267 18.9691 6.818 19.6784 6.818C20.1358 6.818 20.5791 6.89733 21.0084 7.056C21.4378 7.20533 21.7924 7.42 22.0724 7.7L21.6104 8.694C21.3491 8.442 21.0551 8.25533 20.7284 8.134C20.4018 8.00333 20.0844 7.938 19.7764 7.938C19.1044 7.938 18.5771 8.15267 18.1944 8.582C17.8118 9.01133 17.6204 9.632 17.6204 10.444C17.6204 11.2653 17.8118 11.8953 18.1944 12.334C18.5771 12.7727 19.1044 12.992 19.7764 12.992C20.0751 12.992 20.3878 12.936 20.7144 12.824C21.0411 12.7027 21.3398 12.5113 21.6104 12.25L22.0724 13.244C21.7831 13.524 21.4191 13.7433 20.9804 13.902C20.5511 14.0513 20.1171 14.126 19.6784 14.126ZM26.658 14.126C25.958 14.126 25.3514 13.9813 24.838 13.692C24.3247 13.3933 23.928 12.9733 23.648 12.432C23.368 11.8813 23.228 11.228 23.228 10.472C23.228 9.716 23.368 9.06733 23.648 8.526C23.928 7.97533 24.3247 7.55533 24.838 7.266C25.3514 6.96733 25.958 6.818 26.658 6.818C27.358 6.818 27.9647 6.96733 28.478 7.266C29.0007 7.55533 29.402 7.97533 29.682 8.526C29.9714 9.06733 30.116 9.716 30.116 10.472C30.116 11.228 29.9714 11.8813 29.682 12.432C29.402 12.9733 29.0007 13.3933 28.478 13.692C27.9647 13.9813 27.358 14.126 26.658 14.126ZM26.658 13.02C27.274 13.02 27.764 12.8053 28.128 12.376C28.492 11.9467 28.674 11.312 28.674 10.472C28.674 9.632 28.492 9.002 28.128 8.582C27.764 8.15267 27.274 7.938 26.658 7.938C26.0514 7.938 25.566 8.15267 25.202 8.582C24.838 9.002 24.656 9.632 24.656 10.472C24.656 11.312 24.8334 11.9467 25.188 12.376C25.552 12.8053 26.042 13.02 26.658 13.02ZM31.9688 17.024V8.638C31.9688 8.36733 31.9548 8.092 31.9268 7.812C31.9081 7.52267 31.8848 7.23333 31.8568 6.944H33.2288L33.3688 8.54H33.2148C33.3641 8.008 33.6628 7.588 34.1108 7.28C34.5681 6.972 35.1095 6.818 35.7348 6.818C36.3601 6.818 36.9061 6.96733 37.3728 7.266C37.8395 7.55533 38.1988 7.97067 38.4508 8.512C38.7121 9.05333 38.8428 9.70667 38.8428 10.472C38.8428 11.228 38.7121 11.8813 38.4508 12.432C38.1988 12.9827 37.8395 13.4027 37.3728 13.692C36.9061 13.9813 36.3601 14.126 35.7348 14.126C35.1188 14.126 34.5821 13.9767 34.1248 13.678C33.6768 13.37 33.3781 12.9547 33.2288 12.432H33.3828V17.024H31.9688ZM35.3848 13.02C36.0008 13.02 36.4908 12.8053 36.8548 12.376C37.2281 11.9467 37.4148 11.312 37.4148 10.472C37.4148 9.632 37.2281 9.002 36.8548 8.582C36.4908 8.15267 36.0008 7.938 35.3848 7.938C34.7688 7.938 34.2741 8.15267 33.9008 8.582C33.5368 9.002 33.3548 9.632 33.3548 10.472C33.3548 11.312 33.5368 11.9467 33.9008 12.376C34.2741 12.8053 34.7688 13.02 35.3848 13.02ZM40.367 17.178L40.031 16.03C40.4697 15.9367 40.8337 15.8247 41.123 15.694C41.4217 15.5633 41.669 15.3907 41.865 15.176C42.061 14.9707 42.229 14.7047 42.369 14.378L42.719 13.552L42.691 14.126L39.625 6.944H41.137L43.517 12.824H43.139L45.519 6.944H46.975L43.741 14.504C43.5357 14.9707 43.3163 15.3627 43.083 15.68C42.8497 15.9973 42.5977 16.254 42.327 16.45C42.0563 16.646 41.7577 16.8 41.431 16.912C41.1043 17.024 40.7497 17.1127 40.367 17.178ZM48.2549 14V8.694C48.2549 8.40467 48.2455 8.11533 48.2269 7.826C48.2175 7.52733 48.1989 7.23333 48.1709 6.944H49.5429L49.6969 8.764H49.4729C49.5662 8.32533 49.7249 7.96133 49.9489 7.672C50.1729 7.38267 50.4435 7.168 50.7609 7.028C51.0875 6.888 51.4282 6.818 51.7829 6.818C51.9322 6.818 52.0582 6.82733 52.1609 6.846C52.2635 6.85533 52.3662 6.874 52.4689 6.902L52.4549 8.162C52.2962 8.09667 52.1562 8.05933 52.0349 8.05C51.9229 8.03133 51.7829 8.022 51.6149 8.022C51.2042 8.022 50.8542 8.11533 50.5649 8.302C50.2755 8.47933 50.0562 8.722 49.9069 9.03C49.7575 9.338 49.6829 9.66933 49.6829 10.024V14H48.2549ZM53.7602 14V6.944H55.1742V14H53.7602ZM53.6482 5.474V4.004H55.2862V5.474H53.6482ZM60.6245 17.136C59.9899 17.136 59.4112 17.0613 58.8885 16.912C58.3752 16.7627 57.9132 16.5387 57.5025 16.24L57.8525 15.204C58.1419 15.4 58.4265 15.554 58.7065 15.666C58.9865 15.7873 59.2805 15.876 59.5885 15.932C59.8965 15.988 60.2139 16.016 60.5405 16.016C61.2125 16.016 61.7165 15.8433 62.0525 15.498C62.3979 15.162 62.5705 14.672 62.5705 14.028V12.138H62.7105C62.5612 12.6607 62.2532 13.076 61.7865 13.384C61.3292 13.6827 60.7972 13.832 60.1905 13.832C59.5465 13.832 58.9865 13.692 58.5105 13.412C58.0439 13.1227 57.6799 12.7167 57.4185 12.194C57.1665 11.662 57.0405 11.0367 57.0405 10.318C57.0405 9.59933 57.1665 8.97867 57.4185 8.456C57.6799 7.93333 58.0439 7.532 58.5105 7.252C58.9865 6.96267 59.5465 6.818 60.1905 6.818C60.8065 6.818 61.3385 6.972 61.7865 7.28C62.2439 7.57867 62.5472 7.98933 62.6965 8.512L62.5705 8.4L62.6965 6.944H64.0685C64.0312 7.23333 64.0032 7.52267 63.9845 7.812C63.9659 8.092 63.9565 8.36733 63.9565 8.638V13.86C63.9565 14.924 63.6719 15.736 63.1025 16.296C62.5425 16.856 61.7165 17.136 60.6245 17.136ZM60.5265 12.726C61.1425 12.726 61.6325 12.516 61.9965 12.096C62.3699 11.676 62.5565 11.0833 62.5565 10.318C62.5565 9.55267 62.3699 8.96467 61.9965 8.554C61.6325 8.14333 61.1425 7.938 60.5265 7.938C59.8919 7.938 59.3879 8.14333 59.0145 8.554C58.6505 8.96467 58.4685 9.55267 58.4685 10.318C58.4685 11.0833 58.6505 11.676 59.0145 12.096C59.3879 12.516 59.8919 12.726 60.5265 12.726ZM66.2188 14V3.696H67.6328V8.442H67.4368C67.6421 7.91 67.9735 7.50867 68.4308 7.238C68.8881 6.958 69.4155 6.818 70.0128 6.818C70.8528 6.818 71.4781 7.05133 71.8888 7.518C72.2995 7.97533 72.5048 8.67067 72.5048 9.604V14H71.0908V9.688C71.0908 9.08133 70.9695 8.64267 70.7268 8.372C70.4935 8.092 70.1201 7.952 69.6068 7.952C69.0095 7.952 68.5288 8.13867 68.1648 8.512C67.8101 8.876 67.6328 9.36133 67.6328 9.968V14H66.2188ZM77.4616 14.126C76.6963 14.126 76.1176 13.9207 75.7256 13.51C75.3336 13.09 75.1376 12.4647 75.1376 11.634V8.036H73.7656V6.944H75.1376V5.082L76.5516 4.704V6.944H78.5116V8.036H76.5516V11.508C76.5516 12.0307 76.645 12.404 76.8316 12.628C77.0183 12.852 77.289 12.964 77.6436 12.964C77.821 12.964 77.975 12.95 78.1056 12.922C78.2456 12.8847 78.3716 12.8427 78.4836 12.796V13.944C78.3436 14 78.1803 14.042 77.9936 14.07C77.807 14.1073 77.6296 14.126 77.4616 14.126ZM84.062 14V12.922L87.45 9.38C87.8887 8.92267 88.2153 8.49333 88.43 8.092C88.6447 7.69067 88.752 7.27533 88.752 6.846C88.752 6.314 88.584 5.91267 88.248 5.642C87.9213 5.37133 87.4453 5.236 86.82 5.236C86.3253 5.236 85.8587 5.32467 85.42 5.502C84.9907 5.67933 84.5753 5.95 84.174 6.314L83.67 5.208C84.062 4.844 84.5473 4.55467 85.126 4.34C85.714 4.116 86.3347 4.004 86.988 4.004C88.0147 4.004 88.8033 4.23733 89.354 4.704C89.914 5.17067 90.194 5.838 90.194 6.706C90.194 7.322 90.0447 7.91467 89.746 8.484C89.4473 9.044 88.9993 9.62267 88.402 10.22L85.476 13.174V12.782H90.6V14H84.062ZM95.6945 14.126C94.5559 14.126 93.6785 13.692 93.0625 12.824C92.4559 11.9467 92.1525 10.6913 92.1525 9.058C92.1525 7.39667 92.4559 6.14133 93.0625 5.292C93.6785 4.43333 94.5559 4.004 95.6945 4.004C96.8425 4.004 97.7199 4.43333 98.3265 5.292C98.9332 6.14133 99.2365 7.392 99.2365 9.044C99.2365 10.6867 98.9285 11.9467 98.3125 12.824C97.7059 13.692 96.8332 14.126 95.6945 14.126ZM95.6945 12.908C96.4132 12.908 96.9452 12.5953 97.2905 11.97C97.6452 11.3447 97.8225 10.3693 97.8225 9.044C97.8225 7.70933 97.6452 6.73867 97.2905 6.132C96.9452 5.516 96.4132 5.208 95.6945 5.208C94.9852 5.208 94.4532 5.516 94.0985 6.132C93.7439 6.73867 93.5665 7.70467 93.5665 9.03C93.5665 10.3647 93.7439 11.3447 94.0985 11.97C94.4625 12.5953 94.9945 12.908 95.6945 12.908ZM101.251 14V12.922L104.639 9.38C105.078 8.92267 105.404 8.49333 105.619 8.092C105.834 7.69067 105.941 7.27533 105.941 6.846C105.941 6.314 105.773 5.91267 105.437 5.642C105.11 5.37133 104.634 5.236 104.009 5.236C103.514 5.236 103.048 5.32467 102.609 5.502C102.18 5.67933 101.764 5.95 101.363 6.314L100.859 5.208C101.251 4.844 101.736 4.55467 102.315 4.34C102.903 4.116 103.524 4.004 104.177 4.004C105.204 4.004 105.992 4.23733 106.543 4.704C107.103 5.17067 107.383 5.838 107.383 6.706C107.383 7.322 107.234 7.91467 106.935 8.484C106.636 9.044 106.188 9.62267 105.591 10.22L102.665 13.174V12.782H107.789V14H101.251ZM109.846 14V12.922L113.234 9.38C113.672 8.92267 113.999 8.49333 114.214 8.092C114.428 7.69067 114.536 7.27533 114.536 6.846C114.536 6.314 114.368 5.91267 114.032 5.642C113.705 5.37133 113.229 5.236 112.604 5.236C112.109 5.236 111.642 5.32467 111.204 5.502C110.774 5.67933 110.359 5.95 109.958 6.314L109.454 5.208C109.846 4.844 110.331 4.55467 110.91 4.34C111.498 4.116 112.118 4.004 112.772 4.004C113.798 4.004 114.587 4.23733 115.138 4.704C115.698 5.17067 115.978 5.838 115.978 6.706C115.978 7.322 115.828 7.91467 115.53 8.484C115.231 9.044 114.783 9.62267 114.186 10.22L111.26 13.174V12.782H116.384V14H109.846ZM124.949 14.126C124.333 14.126 123.787 13.9813 123.311 13.692C122.844 13.4027 122.48 12.9827 122.219 12.432C121.967 11.8813 121.841 11.228 121.841 10.472C121.841 9.70667 121.967 9.05333 122.219 8.512C122.48 7.97067 122.844 7.55533 123.311 7.266C123.787 6.96733 124.333 6.818 124.949 6.818C125.555 6.818 126.087 6.972 126.545 7.28C127.011 7.57867 127.319 7.98933 127.469 8.512H127.301V3.696H128.715V14H127.315V12.404H127.483C127.324 12.936 127.016 13.356 126.559 13.664C126.101 13.972 125.565 14.126 124.949 14.126ZM125.299 13.02C125.905 13.02 126.395 12.8053 126.769 12.376C127.142 11.9467 127.329 11.312 127.329 10.472C127.329 9.632 127.142 9.002 126.769 8.582C126.395 8.15267 125.905 7.938 125.299 7.938C124.683 7.938 124.188 8.15267 123.815 8.582C123.451 9.002 123.269 9.632 123.269 10.472C123.269 11.312 123.451 11.9467 123.815 12.376C124.188 12.8053 124.683 13.02 125.299 13.02ZM134.24 14.126C133.101 14.126 132.205 13.804 131.552 13.16C130.898 12.516 130.572 11.6247 130.572 10.486C130.572 9.74867 130.712 9.10467 130.992 8.554C131.281 8.00333 131.678 7.57867 132.182 7.28C132.695 6.972 133.288 6.818 133.96 6.818C134.622 6.818 135.178 6.958 135.626 7.238C136.074 7.518 136.414 7.91467 136.648 8.428C136.881 8.932 136.998 9.52933 136.998 10.22V10.668H131.678V9.856H136.032L135.794 10.038C135.794 9.338 135.635 8.79667 135.318 8.414C135.01 8.022 134.562 7.826 133.974 7.826C133.32 7.826 132.816 8.05467 132.462 8.512C132.107 8.96 131.93 9.58067 131.93 10.374V10.514C131.93 11.3447 132.13 11.97 132.532 12.39C132.942 12.81 133.521 13.02 134.268 13.02C134.678 13.02 135.061 12.964 135.416 12.852C135.78 12.7307 136.125 12.5347 136.452 12.264L136.914 13.23C136.587 13.5193 136.19 13.7433 135.724 13.902C135.257 14.0513 134.762 14.126 134.24 14.126ZM141.242 14.126C140.654 14.126 140.113 14.0513 139.618 13.902C139.124 13.7527 138.713 13.5427 138.386 13.272L138.82 12.306C139.166 12.5673 139.548 12.7633 139.968 12.894C140.388 13.0247 140.818 13.09 141.256 13.09C141.77 13.09 142.157 13.0013 142.418 12.824C142.68 12.6373 142.81 12.3853 142.81 12.068C142.81 11.8253 142.726 11.6293 142.558 11.48C142.4 11.3307 142.134 11.2187 141.76 11.144L140.416 10.878C139.819 10.7473 139.366 10.5233 139.058 10.206C138.75 9.88867 138.596 9.48267 138.596 8.988C138.596 8.568 138.708 8.19467 138.932 7.868C139.166 7.54133 139.492 7.28467 139.912 7.098C140.342 6.91133 140.841 6.818 141.41 6.818C141.933 6.818 142.418 6.89267 142.866 7.042C143.314 7.19133 143.688 7.406 143.986 7.686L143.538 8.624C143.249 8.38133 142.922 8.19467 142.558 8.064C142.194 7.924 141.826 7.854 141.452 7.854C140.93 7.854 140.542 7.952 140.29 8.148C140.038 8.344 139.912 8.60067 139.912 8.918C139.912 9.16067 139.987 9.36133 140.136 9.52C140.295 9.66933 140.542 9.786 140.878 9.87L142.222 10.136C142.857 10.2667 143.333 10.4813 143.65 10.78C143.968 11.0787 144.126 11.48 144.126 11.984C144.126 12.4227 144.005 12.8053 143.762 13.132C143.52 13.4587 143.184 13.706 142.754 13.874C142.325 14.042 141.821 14.126 141.242 14.126ZM145.993 14V6.944H147.407V14H145.993ZM145.881 5.474V4.004H147.519V5.474H145.881ZM152.857 17.136C152.223 17.136 151.644 17.0613 151.121 16.912C150.608 16.7627 150.146 16.5387 149.735 16.24L150.085 15.204C150.375 15.4 150.659 15.554 150.939 15.666C151.219 15.7873 151.513 15.876 151.821 15.932C152.129 15.988 152.447 16.016 152.773 16.016C153.445 16.016 153.949 15.8433 154.285 15.498C154.631 15.162 154.803 14.672 154.803 14.028V12.138H154.943C154.794 12.6607 154.486 13.076 154.019 13.384C153.562 13.6827 153.03 13.832 152.423 13.832C151.779 13.832 151.219 13.692 150.743 13.412C150.277 13.1227 149.913 12.7167 149.651 12.194C149.399 11.662 149.273 11.0367 149.273 10.318C149.273 9.59933 149.399 8.97867 149.651 8.456C149.913 7.93333 150.277 7.532 150.743 7.252C151.219 6.96267 151.779 6.818 152.423 6.818C153.039 6.818 153.571 6.972 154.019 7.28C154.477 7.57867 154.78 7.98933 154.929 8.512L154.803 8.4L154.929 6.944H156.301C156.264 7.23333 156.236 7.52267 156.217 7.812C156.199 8.092 156.189 8.36733 156.189 8.638V13.86C156.189 14.924 155.905 15.736 155.335 16.296C154.775 16.856 153.949 17.136 152.857 17.136ZM152.759 12.726C153.375 12.726 153.865 12.516 154.229 12.096C154.603 11.676 154.789 11.0833 154.789 10.318C154.789 9.55267 154.603 8.96467 154.229 8.554C153.865 8.14333 153.375 7.938 152.759 7.938C152.125 7.938 151.621 8.14333 151.247 8.554C150.883 8.96467 150.701 9.55267 150.701 10.318C150.701 11.0833 150.883 11.676 151.247 12.096C151.621 12.516 152.125 12.726 152.759 12.726ZM158.452 14V8.638C158.452 8.36733 158.438 8.092 158.41 7.812C158.391 7.52267 158.368 7.23333 158.34 6.944H159.712L159.838 8.428H159.67C159.884 7.90533 160.216 7.50867 160.664 7.238C161.112 6.958 161.63 6.818 162.218 6.818C163.048 6.818 163.674 7.04667 164.094 7.504C164.523 7.96133 164.738 8.67067 164.738 9.632V14H163.324V9.716C163.324 9.09067 163.198 8.64267 162.946 8.372C162.703 8.092 162.33 7.952 161.826 7.952C161.228 7.952 160.752 8.13867 160.398 8.512C160.043 8.876 159.866 9.37067 159.866 9.996V14H158.452ZM170.212 14.126C169.074 14.126 168.178 13.804 167.524 13.16C166.871 12.516 166.544 11.6247 166.544 10.486C166.544 9.74867 166.684 9.10467 166.964 8.554C167.254 8.00333 167.65 7.57867 168.154 7.28C168.668 6.972 169.26 6.818 169.932 6.818C170.595 6.818 171.15 6.958 171.598 7.238C172.046 7.518 172.387 7.91467 172.62 8.428C172.854 8.932 172.97 9.52933 172.97 10.22V10.668H167.65V9.856H172.004L171.766 10.038C171.766 9.338 171.608 8.79667 171.29 8.414C170.982 8.022 170.534 7.826 169.946 7.826C169.293 7.826 168.789 8.05467 168.434 8.512C168.08 8.96 167.902 9.58067 167.902 10.374V10.514C167.902 11.3447 168.103 11.97 168.504 12.39C168.915 12.81 169.494 13.02 170.24 13.02C170.651 13.02 171.034 12.964 171.388 12.852C171.752 12.7307 172.098 12.5347 172.424 12.264L172.886 13.23C172.56 13.5193 172.163 13.7433 171.696 13.902C171.23 14.0513 170.735 14.126 170.212 14.126ZM177.495 14.126C176.879 14.126 176.333 13.9813 175.857 13.692C175.39 13.4027 175.026 12.9827 174.765 12.432C174.513 11.8813 174.387 11.228 174.387 10.472C174.387 9.70667 174.513 9.05333 174.765 8.512C175.026 7.97067 175.39 7.55533 175.857 7.266C176.333 6.96733 176.879 6.818 177.495 6.818C178.102 6.818 178.634 6.972 179.091 7.28C179.558 7.57867 179.866 7.98933 180.015 8.512H179.847V3.696H181.261V14H179.861V12.404H180.029C179.87 12.936 179.562 13.356 179.105 13.664C178.648 13.972 178.111 14.126 177.495 14.126ZM177.845 13.02C178.452 13.02 178.942 12.8053 179.315 12.376C179.688 11.9467 179.875 11.312 179.875 10.472C179.875 9.632 179.688 9.002 179.315 8.582C178.942 8.15267 178.452 7.938 177.845 7.938C177.229 7.938 176.734 8.15267 176.361 8.582C175.997 9.002 175.815 9.632 175.815 10.472C175.815 11.312 175.997 11.9467 176.361 12.376C176.734 12.8053 177.229 13.02 177.845 13.02ZM195.591 14.126C195.161 13.958 194.755 13.7387 194.373 13.468C193.99 13.1973 193.654 12.922 193.365 12.642L193.687 12.656C193.276 13.1133 192.786 13.4727 192.217 13.734C191.647 13.9953 191.036 14.126 190.383 14.126C189.683 14.126 189.081 14.0187 188.577 13.804C188.082 13.5893 187.699 13.2907 187.429 12.908C187.167 12.5253 187.037 12.0773 187.037 11.564C187.037 10.92 187.223 10.374 187.597 9.926C187.97 9.478 188.493 9.044 189.165 8.624L189.627 8.344L189.417 8.61C188.997 8.17133 188.689 7.77 188.493 7.406C188.297 7.03267 188.199 6.64533 188.199 6.244C188.199 5.796 188.306 5.404 188.521 5.068C188.735 4.732 189.034 4.47067 189.417 4.284C189.809 4.09733 190.271 4.004 190.803 4.004C191.484 4.004 192.039 4.19067 192.469 4.564C192.907 4.928 193.127 5.432 193.127 6.076C193.127 6.412 193.057 6.734 192.917 7.042C192.786 7.34067 192.562 7.63 192.245 7.91C191.937 8.19 191.517 8.484 190.985 8.792L191.027 8.498L193.617 11.256H193.323C193.565 10.864 193.752 10.402 193.883 9.87C194.013 9.32867 194.093 8.75467 194.121 8.148H195.325C195.306 8.92267 195.194 9.65067 194.989 10.332C194.783 11.004 194.508 11.5967 194.163 12.11L194.149 11.732C194.391 11.9933 194.681 12.2453 195.017 12.488C195.353 12.7307 195.717 12.936 196.109 13.104L195.591 14.126ZM190.439 13.006C190.961 13.006 191.423 12.908 191.825 12.712C192.235 12.5067 192.59 12.208 192.889 11.816L192.861 12.18L189.865 9.058L190.425 9.072L190.005 9.324C189.65 9.548 189.356 9.772 189.123 9.996C188.889 10.2107 188.717 10.4347 188.605 10.668C188.493 10.9013 188.437 11.172 188.437 11.48C188.437 11.956 188.605 12.3293 188.941 12.6C189.286 12.8707 189.785 13.006 190.439 13.006ZM190.803 4.998C190.411 4.998 190.093 5.11 189.851 5.334C189.617 5.558 189.501 5.85667 189.501 6.23C189.501 6.41667 189.533 6.594 189.599 6.762C189.664 6.93 189.776 7.11667 189.935 7.322C190.093 7.518 190.308 7.76067 190.579 8.05L190.215 8.078C190.831 7.72333 191.279 7.40133 191.559 7.112C191.839 6.82267 191.979 6.496 191.979 6.132C191.979 5.78667 191.871 5.51133 191.657 5.306C191.442 5.10067 191.157 4.998 190.803 4.998ZM203.779 14.126C203.163 14.126 202.617 13.9813 202.141 13.692C201.675 13.4027 201.311 12.9827 201.049 12.432C200.797 11.8813 200.671 11.228 200.671 10.472C200.671 9.70667 200.797 9.05333 201.049 8.512C201.311 7.97067 201.675 7.55533 202.141 7.266C202.617 6.96733 203.163 6.818 203.779 6.818C204.386 6.818 204.918 6.972 205.375 7.28C205.842 7.57867 206.15 7.98933 206.299 8.512H206.131V3.696H207.545V14H206.145V12.404H206.313C206.155 12.936 205.847 13.356 205.389 13.664C204.932 13.972 204.395 14.126 203.779 14.126ZM204.129 13.02C204.736 13.02 205.226 12.8053 205.599 12.376C205.973 11.9467 206.159 11.312 206.159 10.472C206.159 9.632 205.973 9.002 205.599 8.582C205.226 8.15267 204.736 7.938 204.129 7.938C203.513 7.938 203.019 8.15267 202.645 8.582C202.281 9.002 202.099 9.632 202.099 10.472C202.099 11.312 202.281 11.9467 202.645 12.376C203.019 12.8053 203.513 13.02 204.129 13.02ZM213.071 14.126C211.932 14.126 211.036 13.804 210.383 13.16C209.729 12.516 209.403 11.6247 209.403 10.486C209.403 9.74867 209.543 9.10467 209.823 8.554C210.112 8.00333 210.509 7.57867 211.013 7.28C211.526 6.972 212.119 6.818 212.791 6.818C213.453 6.818 214.009 6.958 214.457 7.238C214.905 7.518 215.245 7.91467 215.479 8.428C215.712 8.932 215.829 9.52933 215.829 10.22V10.668H210.509V9.856H214.863L214.625 10.038C214.625 9.338 214.466 8.79667 214.149 8.414C213.841 8.022 213.393 7.826 212.805 7.826C212.151 7.826 211.647 8.05467 211.293 8.512C210.938 8.96 210.761 9.58067 210.761 10.374V10.514C210.761 11.3447 210.961 11.97 211.363 12.39C211.773 12.81 212.352 13.02 213.099 13.02C213.509 13.02 213.892 12.964 214.247 12.852C214.611 12.7307 214.956 12.5347 215.283 12.264L215.745 13.23C215.418 13.5193 215.021 13.7433 214.555 13.902C214.088 14.0513 213.593 14.126 213.071 14.126ZM219.628 14L216.604 6.944H218.116L220.496 12.838H220.09L222.512 6.944H223.954L220.916 14H219.628ZM228.414 14.126C227.275 14.126 226.379 13.804 225.726 13.16C225.073 12.516 224.746 11.6247 224.746 10.486C224.746 9.74867 224.886 9.10467 225.166 8.554C225.455 8.00333 225.852 7.57867 226.356 7.28C226.869 6.972 227.462 6.818 228.134 6.818C228.797 6.818 229.352 6.958 229.8 7.238C230.248 7.518 230.589 7.91467 230.822 8.428C231.055 8.932 231.172 9.52933 231.172 10.22V10.668H225.852V9.856H230.206L229.968 10.038C229.968 9.338 229.809 8.79667 229.492 8.414C229.184 8.022 228.736 7.826 228.148 7.826C227.495 7.826 226.991 8.05467 226.636 8.512C226.281 8.96 226.104 9.58067 226.104 10.374V10.514C226.104 11.3447 226.305 11.97 226.706 12.39C227.117 12.81 227.695 13.02 228.442 13.02C228.853 13.02 229.235 12.964 229.59 12.852C229.954 12.7307 230.299 12.5347 230.626 12.264L231.088 13.23C230.761 13.5193 230.365 13.7433 229.898 13.902C229.431 14.0513 228.937 14.126 228.414 14.126ZM232.995 14V3.696H234.409V14H232.995ZM239.705 14.126C239.005 14.126 238.398 13.9813 237.885 13.692C237.372 13.3933 236.975 12.9733 236.695 12.432C236.415 11.8813 236.275 11.228 236.275 10.472C236.275 9.716 236.415 9.06733 236.695 8.526C236.975 7.97533 237.372 7.55533 237.885 7.266C238.398 6.96733 239.005 6.818 239.705 6.818C240.405 6.818 241.012 6.96733 241.525 7.266C242.048 7.55533 242.449 7.97533 242.729 8.526C243.018 9.06733 243.163 9.716 243.163 10.472C243.163 11.228 243.018 11.8813 242.729 12.432C242.449 12.9733 242.048 13.3933 241.525 13.692C241.012 13.9813 240.405 14.126 239.705 14.126ZM239.705 13.02C240.321 13.02 240.811 12.8053 241.175 12.376C241.539 11.9467 241.721 11.312 241.721 10.472C241.721 9.632 241.539 9.002 241.175 8.582C240.811 8.15267 240.321 7.938 239.705 7.938C239.098 7.938 238.613 8.15267 238.249 8.582C237.885 9.002 237.703 9.632 237.703 10.472C237.703 11.312 237.88 11.9467 238.235 12.376C238.599 12.8053 239.089 13.02 239.705 13.02ZM245.016 17.024V8.638C245.016 8.36733 245.002 8.092 244.974 7.812C244.955 7.52267 244.932 7.23333 244.904 6.944H246.276L246.416 8.54H246.262C246.411 8.008 246.71 7.588 247.158 7.28C247.615 6.972 248.156 6.818 248.782 6.818C249.407 6.818 249.953 6.96733 250.42 7.266C250.886 7.55533 251.246 7.97067 251.498 8.512C251.759 9.05333 251.89 9.70667 251.89 10.472C251.89 11.228 251.759 11.8813 251.498 12.432C251.246 12.9827 250.886 13.4027 250.42 13.692C249.953 13.9813 249.407 14.126 248.782 14.126C248.166 14.126 247.629 13.9767 247.172 13.678C246.724 13.37 246.425 12.9547 246.276 12.432H246.43V17.024H245.016ZM248.432 13.02C249.048 13.02 249.538 12.8053 249.902 12.376C250.275 11.9467 250.462 11.312 250.462 10.472C250.462 9.632 250.275 9.002 249.902 8.582C249.538 8.15267 249.048 7.938 248.432 7.938C247.816 7.938 247.321 8.15267 246.948 8.582C246.584 9.002 246.402 9.632 246.402 10.472C246.402 11.312 246.584 11.9467 246.948 12.376C247.321 12.8053 247.816 13.02 248.432 13.02ZM257.009 14.126C255.87 14.126 254.974 13.804 254.321 13.16C253.668 12.516 253.341 11.6247 253.341 10.486C253.341 9.74867 253.481 9.10467 253.761 8.554C254.05 8.00333 254.447 7.57867 254.951 7.28C255.464 6.972 256.057 6.818 256.729 6.818C257.392 6.818 257.947 6.958 258.395 7.238C258.843 7.518 259.184 7.91467 259.417 8.428C259.65 8.932 259.767 9.52933 259.767 10.22V10.668H254.447V9.856H258.801L258.563 10.038C258.563 9.338 258.404 8.79667 258.087 8.414C257.779 8.022 257.331 7.826 256.743 7.826C256.09 7.826 255.586 8.05467 255.231 8.512C254.876 8.96 254.699 9.58067 254.699 10.374V10.514C254.699 11.3447 254.9 11.97 255.301 12.39C255.712 12.81 256.29 13.02 257.037 13.02C257.448 13.02 257.83 12.964 258.185 12.852C258.549 12.7307 258.894 12.5347 259.221 12.264L259.683 13.23C259.356 13.5193 258.96 13.7433 258.493 13.902C258.026 14.0513 257.532 14.126 257.009 14.126ZM264.292 14.126C263.676 14.126 263.13 13.9813 262.654 13.692C262.187 13.4027 261.823 12.9827 261.562 12.432C261.31 11.8813 261.184 11.228 261.184 10.472C261.184 9.70667 261.31 9.05333 261.562 8.512C261.823 7.97067 262.187 7.55533 262.654 7.266C263.13 6.96733 263.676 6.818 264.292 6.818C264.898 6.818 265.43 6.972 265.888 7.28C266.354 7.57867 266.662 7.98933 266.812 8.512H266.644V3.696H268.058V14H266.658V12.404H266.826C266.667 12.936 266.359 13.356 265.902 13.664C265.444 13.972 264.908 14.126 264.292 14.126ZM264.642 13.02C265.248 13.02 265.738 12.8053 266.112 12.376C266.485 11.9467 266.672 11.312 266.672 10.472C266.672 9.632 266.485 9.002 266.112 8.582C265.738 8.15267 265.248 7.938 264.642 7.938C264.026 7.938 263.531 8.15267 263.158 8.582C262.794 9.002 262.612 9.632 262.612 10.472C262.612 11.312 262.794 11.9467 263.158 12.376C263.531 12.8053 264.026 13.02 264.642 13.02ZM278.019 14.126C277.403 14.126 276.867 13.972 276.409 13.664C275.952 13.356 275.649 12.936 275.499 12.404H275.653V14H274.253V3.696H275.667V8.512H275.499C275.658 7.98933 275.961 7.57867 276.409 7.28C276.867 6.972 277.403 6.818 278.019 6.818C278.645 6.818 279.191 6.96733 279.657 7.266C280.124 7.55533 280.483 7.97533 280.735 8.526C280.997 9.06733 281.127 9.72067 281.127 10.486C281.127 11.242 280.997 11.8953 280.735 12.446C280.483 12.9873 280.119 13.4027 279.643 13.692C279.177 13.9813 278.635 14.126 278.019 14.126ZM277.669 13.02C278.276 13.02 278.766 12.81 279.139 12.39C279.513 11.9607 279.699 11.326 279.699 10.486C279.699 9.63667 279.513 9.002 279.139 8.582C278.766 8.15267 278.276 7.938 277.669 7.938C277.053 7.938 276.559 8.15267 276.185 8.582C275.821 9.002 275.639 9.632 275.639 10.472C275.639 11.312 275.821 11.9467 276.185 12.376C276.559 12.8053 277.053 13.02 277.669 13.02ZM282.651 17.178L282.315 16.03C282.754 15.9367 283.118 15.8247 283.407 15.694C283.706 15.5633 283.953 15.3907 284.149 15.176C284.345 14.9707 284.513 14.7047 284.653 14.378L285.003 13.552L284.975 14.126L281.909 6.944H283.421L285.801 12.824H285.423L287.803 6.944H289.259L286.025 14.504C285.82 14.9707 285.601 15.3627 285.367 15.68C285.134 15.9973 284.882 16.254 284.611 16.45C284.341 16.646 284.042 16.8 283.715 16.912C283.389 17.024 283.034 17.1127 282.651 17.178ZM294.626 14V4.13H300.954V5.292H296.082V8.456H300.632V9.618H296.082V14H294.626ZM305.072 14.126C304.446 14.126 303.9 13.9813 303.434 13.692C302.967 13.4027 302.603 12.9827 302.342 12.432C302.09 11.8813 301.964 11.228 301.964 10.472C301.964 9.70667 302.09 9.05333 302.342 8.512C302.603 7.97067 302.967 7.55533 303.434 7.266C303.9 6.96733 304.446 6.818 305.072 6.818C305.688 6.818 306.224 6.972 306.682 7.28C307.139 7.588 307.442 8.008 307.592 8.54H307.438L307.578 6.944H308.95C308.922 7.23333 308.894 7.52267 308.866 7.812C308.847 8.092 308.838 8.36733 308.838 8.638V14H307.424V12.432H307.578C307.428 12.9547 307.12 13.37 306.654 13.678C306.196 13.9767 305.669 14.126 305.072 14.126ZM305.422 13.02C306.028 13.02 306.514 12.8053 306.878 12.376C307.251 11.9467 307.438 11.312 307.438 10.472C307.438 9.632 307.251 9.002 306.878 8.582C306.514 8.15267 306.028 7.938 305.422 7.938C304.806 7.938 304.311 8.15267 303.938 8.582C303.574 9.002 303.392 9.632 303.392 10.472C303.392 11.312 303.574 11.9467 303.938 12.376C304.302 12.8053 304.796 13.02 305.422 13.02ZM311.101 14V8.638C311.101 8.36733 311.087 8.092 311.059 7.812C311.04 7.52267 311.017 7.23333 310.989 6.944H312.361L312.487 8.428H312.319C312.534 7.90533 312.865 7.50867 313.313 7.238C313.761 6.958 314.279 6.818 314.867 6.818C315.698 6.818 316.323 7.04667 316.743 7.504C317.172 7.96133 317.387 8.67067 317.387 9.632V14H315.973V9.716C315.973 9.09067 315.847 8.64267 315.595 8.372C315.352 8.092 314.979 7.952 314.475 7.952C313.878 7.952 313.402 8.13867 313.047 8.512C312.692 8.876 312.515 9.37067 312.515 9.996V14H311.101ZM319.726 14V4.13H321.182V14H319.726ZM325.995 14.126C325.407 14.126 324.866 14.0513 324.371 13.902C323.876 13.7527 323.466 13.5427 323.139 13.272L323.573 12.306C323.918 12.5673 324.301 12.7633 324.721 12.894C325.141 13.0247 325.57 13.09 326.009 13.09C326.522 13.09 326.91 13.0013 327.171 12.824C327.432 12.6373 327.563 12.3853 327.563 12.068C327.563 11.8253 327.479 11.6293 327.311 11.48C327.152 11.3307 326.886 11.2187 326.513 11.144L325.169 10.878C324.572 10.7473 324.119 10.5233 323.811 10.206C323.503 9.88867 323.349 9.48267 323.349 8.988C323.349 8.568 323.461 8.19467 323.685 7.868C323.918 7.54133 324.245 7.28467 324.665 7.098C325.094 6.91133 325.594 6.818 326.163 6.818C326.686 6.818 327.171 6.89267 327.619 7.042C328.067 7.19133 328.44 7.406 328.739 7.686L328.291 8.624C328.002 8.38133 327.675 8.19467 327.311 8.064C326.947 7.924 326.578 7.854 326.205 7.854C325.682 7.854 325.295 7.952 325.043 8.148C324.791 8.344 324.665 8.60067 324.665 8.918C324.665 9.16067 324.74 9.36133 324.889 9.52C325.048 9.66933 325.295 9.786 325.631 9.87L326.975 10.136C327.61 10.2667 328.086 10.4813 328.403 10.78C328.72 11.0787 328.879 11.48 328.879 11.984C328.879 12.4227 328.758 12.8053 328.515 13.132C328.272 13.4587 327.936 13.706 327.507 13.874C327.078 14.042 326.574 14.126 325.995 14.126ZM330.872 14V4.13H337.2V5.292H332.328V8.456H336.878V9.618H332.328V14H330.872ZM341.231 14.126C340.382 14.126 339.742 13.8973 339.313 13.44C338.893 12.9733 338.683 12.2593 338.683 11.298V6.944H340.097V11.27C340.097 11.858 340.218 12.292 340.461 12.572C340.704 12.852 341.072 12.992 341.567 12.992C342.127 12.992 342.58 12.8053 342.925 12.432C343.27 12.0587 343.443 11.564 343.443 10.948V6.944H344.857V14H343.485V12.488H343.667C343.471 13.0107 343.158 13.4167 342.729 13.706C342.3 13.986 341.8 14.126 341.231 14.126ZM347.128 14V8.638C347.128 8.36733 347.114 8.092 347.086 7.812C347.068 7.52267 347.044 7.23333 347.016 6.944H348.388L348.514 8.428H348.346C348.561 7.90533 348.892 7.50867 349.34 7.238C349.788 6.958 350.306 6.818 350.894 6.818C351.725 6.818 352.35 7.04667 352.77 7.504C353.2 7.96133 353.414 8.67067 353.414 9.632V14H352V9.716C352 9.09067 351.874 8.64267 351.622 8.372C351.38 8.092 351.006 7.952 350.502 7.952C349.905 7.952 349.429 8.13867 349.074 8.512C348.72 8.876 348.542 9.37067 348.542 9.996V14H347.128ZM355.417 14V12.334H357.083V14H355.417ZM460.613 16.59V4.06H462.027V16.59H460.613ZM583.645 16.59V4.06H585.059V16.59H583.645ZM593.846 14.126C593.258 14.126 592.717 14.0513 592.222 13.902C591.728 13.7527 591.317 13.5427 590.99 13.272L591.424 12.306C591.77 12.5673 592.152 12.7633 592.572 12.894C592.992 13.0247 593.422 13.09 593.86 13.09C594.374 13.09 594.761 13.0013 595.022 12.824C595.284 12.6373 595.414 12.3853 595.414 12.068C595.414 11.8253 595.33 11.6293 595.162 11.48C595.004 11.3307 594.738 11.2187 594.364 11.144L593.02 10.878C592.423 10.7473 591.97 10.5233 591.662 10.206C591.354 9.88867 591.2 9.48267 591.2 8.988C591.2 8.568 591.312 8.19467 591.536 7.868C591.77 7.54133 592.096 7.28467 592.516 7.098C592.946 6.91133 593.445 6.818 594.014 6.818C594.537 6.818 595.022 6.89267 595.47 7.042C595.918 7.19133 596.292 7.406 596.59 7.686L596.142 8.624C595.853 8.38133 595.526 8.19467 595.162 8.064C594.798 7.924 594.43 7.854 594.056 7.854C593.534 7.854 593.146 7.952 592.894 8.148C592.642 8.344 592.516 8.60067 592.516 8.918C592.516 9.16067 592.591 9.36133 592.74 9.52C592.899 9.66933 593.146 9.786 593.482 9.87L594.826 10.136C595.461 10.2667 595.937 10.4813 596.254 10.78C596.572 11.0787 596.73 11.48 596.73 11.984C596.73 12.4227 596.609 12.8053 596.366 13.132C596.124 13.4587 595.788 13.706 595.358 13.874C594.929 14.042 594.425 14.126 593.846 14.126ZM601.103 14.126C600.254 14.126 599.614 13.8973 599.185 13.44C598.765 12.9733 598.555 12.2593 598.555 11.298V6.944H599.969V11.27C599.969 11.858 600.09 12.292 600.333 12.572C600.576 12.852 600.944 12.992 601.439 12.992C601.999 12.992 602.452 12.8053 602.797 12.432C603.142 12.0587 603.315 11.564 603.315 10.948V6.944H604.729V14H603.357V12.488H603.539C603.343 13.0107 603.03 13.4167 602.601 13.706C602.172 13.986 601.672 14.126 601.103 14.126ZM607 17.024V8.638C607 8.36733 606.986 8.092 606.958 7.812C606.939 7.52267 606.916 7.23333 606.888 6.944H608.26L608.4 8.54H608.246C608.395 8.008 608.694 7.588 609.142 7.28C609.599 6.972 610.141 6.818 610.766 6.818C611.391 6.818 611.937 6.96733 612.404 7.266C612.871 7.55533 613.23 7.97067 613.482 8.512C613.743 9.05333 613.874 9.70667 613.874 10.472C613.874 11.228 613.743 11.8813 613.482 12.432C613.23 12.9827 612.871 13.4027 612.404 13.692C611.937 13.9813 611.391 14.126 610.766 14.126C610.15 14.126 609.613 13.9767 609.156 13.678C608.708 13.37 608.409 12.9547 608.26 12.432H608.414V17.024H607ZM610.416 13.02C611.032 13.02 611.522 12.8053 611.886 12.376C612.259 11.9467 612.446 11.312 612.446 10.472C612.446 9.632 612.259 9.002 611.886 8.582C611.522 8.15267 611.032 7.938 610.416 7.938C609.8 7.938 609.305 8.15267 608.932 8.582C608.568 9.002 608.386 9.632 608.386 10.472C608.386 11.312 608.568 11.9467 608.932 12.376C609.305 12.8053 609.8 13.02 610.416 13.02ZM615.731 17.024V8.638C615.731 8.36733 615.717 8.092 615.689 7.812C615.671 7.52267 615.647 7.23333 615.619 6.944H616.991L617.131 8.54H616.977C617.127 8.008 617.425 7.588 617.873 7.28C618.331 6.972 618.872 6.818 619.497 6.818C620.123 6.818 620.669 6.96733 621.135 7.266C621.602 7.55533 621.961 7.97067 622.213 8.512C622.475 9.05333 622.605 9.70667 622.605 10.472C622.605 11.228 622.475 11.8813 622.213 12.432C621.961 12.9827 621.602 13.4027 621.135 13.692C620.669 13.9813 620.123 14.126 619.497 14.126C618.881 14.126 618.345 13.9767 617.887 13.678C617.439 13.37 617.141 12.9547 616.991 12.432H617.145V17.024H615.731ZM619.147 13.02C619.763 13.02 620.253 12.8053 620.617 12.376C620.991 11.9467 621.177 11.312 621.177 10.472C621.177 9.632 620.991 9.002 620.617 8.582C620.253 8.15267 619.763 7.938 619.147 7.938C618.531 7.938 618.037 8.15267 617.663 8.582C617.299 9.002 617.117 9.632 617.117 10.472C617.117 11.312 617.299 11.9467 617.663 12.376C618.037 12.8053 618.531 13.02 619.147 13.02ZM627.487 14.126C626.787 14.126 626.18 13.9813 625.667 13.692C625.153 13.3933 624.757 12.9733 624.477 12.432C624.197 11.8813 624.057 11.228 624.057 10.472C624.057 9.716 624.197 9.06733 624.477 8.526C624.757 7.97533 625.153 7.55533 625.667 7.266C626.18 6.96733 626.787 6.818 627.487 6.818C628.187 6.818 628.793 6.96733 629.307 7.266C629.829 7.55533 630.231 7.97533 630.511 8.526C630.8 9.06733 630.945 9.716 630.945 10.472C630.945 11.228 630.8 11.8813 630.511 12.432C630.231 12.9733 629.829 13.3933 629.307 13.692C628.793 13.9813 628.187 14.126 627.487 14.126ZM627.487 13.02C628.103 13.02 628.593 12.8053 628.957 12.376C629.321 11.9467 629.503 11.312 629.503 10.472C629.503 9.632 629.321 9.002 628.957 8.582C628.593 8.15267 628.103 7.938 627.487 7.938C626.88 7.938 626.395 8.15267 626.031 8.582C625.667 9.002 625.485 9.632 625.485 10.472C625.485 11.312 625.662 11.9467 626.017 12.376C626.381 12.8053 626.871 13.02 627.487 13.02ZM632.769 14V8.694C632.769 8.40467 632.76 8.11533 632.741 7.826C632.732 7.52733 632.713 7.23333 632.685 6.944H634.057L634.211 8.764H633.987C634.081 8.32533 634.239 7.96133 634.463 7.672C634.687 7.38267 634.958 7.168 635.275 7.028C635.602 6.888 635.943 6.818 636.297 6.818C636.447 6.818 636.573 6.82733 636.675 6.846C636.778 6.85533 636.881 6.874 636.983 6.902L636.969 8.162C636.811 8.09667 636.671 8.05933 636.549 8.05C636.437 8.03133 636.297 8.022 636.129 8.022C635.719 8.022 635.369 8.11533 635.079 8.302C634.79 8.47933 634.571 8.722 634.421 9.03C634.272 9.338 634.197 9.66933 634.197 10.024V14H632.769ZM641.401 14.126C640.636 14.126 640.057 13.9207 639.665 13.51C639.273 13.09 639.077 12.4647 639.077 11.634V8.036H637.705V6.944H639.077V5.082L640.491 4.704V6.944H642.451V8.036H640.491V11.508C640.491 12.0307 640.585 12.404 640.771 12.628C640.958 12.852 641.229 12.964 641.583 12.964C641.761 12.964 641.915 12.95 642.045 12.922C642.185 12.8847 642.311 12.8427 642.423 12.796V13.944C642.283 14 642.12 14.042 641.933 14.07C641.747 14.1073 641.569 14.126 641.401 14.126ZM649.823 16.296C648.909 16.296 648.078 16.1513 647.331 15.862C646.585 15.582 645.941 15.1713 645.399 14.63C644.867 14.098 644.457 13.4633 644.167 12.726C643.878 11.9793 643.733 11.144 643.733 10.22C643.733 9.296 643.883 8.45133 644.181 7.686C644.48 6.92067 644.909 6.26267 645.469 5.712C646.039 5.16133 646.706 4.74133 647.471 4.452C648.246 4.15333 649.105 4.004 650.047 4.004C651.167 4.004 652.143 4.21867 652.973 4.648C653.813 5.07733 654.467 5.684 654.933 6.468C655.4 7.24267 655.633 8.15733 655.633 9.212C655.633 10.0147 655.517 10.7147 655.283 11.312C655.059 11.9 654.737 12.3573 654.317 12.684C653.907 13.0107 653.421 13.174 652.861 13.174C652.301 13.174 651.867 13.0153 651.559 12.698C651.261 12.3807 651.121 11.942 651.139 11.382L651.475 11.368C651.233 11.956 650.892 12.404 650.453 12.712C650.024 13.02 649.553 13.174 649.039 13.174C648.293 13.174 647.714 12.9453 647.303 12.488C646.902 12.0307 646.701 11.4007 646.701 10.598C646.701 9.90733 646.832 9.296 647.093 8.764C647.355 8.22267 647.719 7.80267 648.185 7.504C648.652 7.196 649.179 7.042 649.767 7.042C650.29 7.042 650.715 7.168 651.041 7.42C651.368 7.672 651.583 8.03133 651.685 8.498H651.489L651.741 7.168H652.833L652.203 10.682C652.185 10.822 652.166 10.9527 652.147 11.074C652.138 11.186 652.133 11.2933 652.133 11.396C652.133 11.6947 652.199 11.9187 652.329 12.068C652.469 12.2173 652.675 12.292 652.945 12.292C653.291 12.292 653.594 12.166 653.855 11.914C654.117 11.6527 654.322 11.2933 654.471 10.836C654.621 10.3693 654.695 9.828 654.695 9.212C654.695 8.32533 654.504 7.56467 654.121 6.93C653.739 6.286 653.197 5.79133 652.497 5.446C651.807 5.10067 650.985 4.928 650.033 4.928C648.979 4.928 648.055 5.14733 647.261 5.586C646.468 6.01533 645.852 6.63133 645.413 7.434C644.984 8.22733 644.769 9.156 644.769 10.22C644.769 11.284 644.975 12.2033 645.385 12.978C645.805 13.7527 646.393 14.3453 647.149 14.756C647.905 15.1667 648.797 15.372 649.823 15.372C650.579 15.372 651.261 15.26 651.867 15.036C652.483 14.8213 653.001 14.5087 653.421 14.098L653.925 14.896C653.468 15.344 652.885 15.6893 652.175 15.932C651.466 16.1747 650.682 16.296 649.823 16.296ZM649.221 12.236C649.623 12.236 649.977 12.1193 650.285 11.886C650.603 11.6527 650.85 11.3307 651.027 10.92C651.214 10.5 651.307 10.024 651.307 9.492C651.307 8.988 651.195 8.61467 650.971 8.372C650.747 8.12 650.402 7.994 649.935 7.994C649.543 7.994 649.184 8.106 648.857 8.33C648.54 8.54467 648.293 8.848 648.115 9.24C647.938 9.632 647.849 10.08 647.849 10.584C647.849 11.116 647.966 11.5267 648.199 11.816C648.442 12.096 648.783 12.236 649.221 12.236ZM658.099 14V8.036H656.727V6.944H658.491L658.099 7.308V6.188C658.099 5.35733 658.309 4.72733 658.729 4.298C659.149 3.85933 659.765 3.64 660.577 3.64C660.773 3.64 660.978 3.654 661.193 3.682C661.407 3.71 661.585 3.75667 661.725 3.822V4.97C661.613 4.92333 661.473 4.886 661.305 4.858C661.146 4.82067 660.983 4.802 660.815 4.802C660.544 4.802 660.311 4.858 660.115 4.97C659.919 5.07267 659.765 5.23133 659.653 5.446C659.55 5.66067 659.499 5.936 659.499 6.272V7.224L659.289 6.944H661.417V8.036H659.513V14H658.099ZM665.434 14.126C664.809 14.126 664.263 13.9813 663.796 13.692C663.329 13.4027 662.965 12.9827 662.704 12.432C662.452 11.8813 662.326 11.228 662.326 10.472C662.326 9.70667 662.452 9.05333 662.704 8.512C662.965 7.97067 663.329 7.55533 663.796 7.266C664.263 6.96733 664.809 6.818 665.434 6.818C666.05 6.818 666.587 6.972 667.044 7.28C667.501 7.588 667.805 8.008 667.954 8.54H667.8L667.94 6.944H669.312C669.284 7.23333 669.256 7.52267 669.228 7.812C669.209 8.092 669.2 8.36733 669.2 8.638V14H667.786V12.432H667.94C667.791 12.9547 667.483 13.37 667.016 13.678C666.559 13.9767 666.031 14.126 665.434 14.126ZM665.784 13.02C666.391 13.02 666.876 12.8053 667.24 12.376C667.613 11.9467 667.8 11.312 667.8 10.472C667.8 9.632 667.613 9.002 667.24 8.582C666.876 8.15267 666.391 7.938 665.784 7.938C665.168 7.938 664.673 8.15267 664.3 8.582C663.936 9.002 663.754 9.632 663.754 10.472C663.754 11.312 663.936 11.9467 664.3 12.376C664.664 12.8053 665.159 13.02 665.784 13.02ZM671.463 14V8.638C671.463 8.36733 671.449 8.092 671.421 7.812C671.403 7.52267 671.379 7.23333 671.351 6.944H672.723L672.849 8.428H672.681C672.896 7.90533 673.227 7.50867 673.675 7.238C674.123 6.958 674.641 6.818 675.229 6.818C676.06 6.818 676.685 7.04667 677.105 7.504C677.535 7.96133 677.749 8.67067 677.749 9.632V14H676.335V9.716C676.335 9.09067 676.209 8.64267 675.957 8.372C675.715 8.092 675.341 7.952 674.837 7.952C674.24 7.952 673.764 8.13867 673.409 8.512C673.055 8.876 672.877 9.37067 672.877 9.996V14H671.463ZM679.962 14V6.944H681.376V14H679.962ZM679.85 5.474V4.004H681.488V5.474H679.85ZM686.07 14.126C685.482 14.126 684.941 14.0513 684.446 13.902C683.952 13.7527 683.541 13.5427 683.214 13.272L683.648 12.306C683.994 12.5673 684.376 12.7633 684.796 12.894C685.216 13.0247 685.646 13.09 686.084 13.09C686.598 13.09 686.985 13.0013 687.246 12.824C687.508 12.6373 687.638 12.3853 687.638 12.068C687.638 11.8253 687.554 11.6293 687.386 11.48C687.228 11.3307 686.962 11.2187 686.588 11.144L685.244 10.878C684.647 10.7473 684.194 10.5233 683.886 10.206C683.578 9.88867 683.424 9.48267 683.424 8.988C683.424 8.568 683.536 8.19467 683.76 7.868C683.994 7.54133 684.32 7.28467 684.74 7.098C685.17 6.91133 685.669 6.818 686.238 6.818C686.761 6.818 687.246 6.89267 687.694 7.042C688.142 7.19133 688.516 7.406 688.814 7.686L688.366 8.624C688.077 8.38133 687.75 8.19467 687.386 8.064C687.022 7.924 686.654 7.854 686.28 7.854C685.758 7.854 685.37 7.952 685.118 8.148C684.866 8.344 684.74 8.60067 684.74 8.918C684.74 9.16067 684.815 9.36133 684.964 9.52C685.123 9.66933 685.37 9.786 685.706 9.87L687.05 10.136C687.685 10.2667 688.161 10.4813 688.478 10.78C688.796 11.0787 688.954 11.48 688.954 11.984C688.954 12.4227 688.833 12.8053 688.59 13.132C688.348 13.4587 688.012 13.706 687.582 13.874C687.153 14.042 686.649 14.126 686.07 14.126ZM691.241 14V8.036H689.869V6.944H691.633L691.241 7.308V6.188C691.241 5.35733 691.451 4.72733 691.871 4.298C692.291 3.85933 692.907 3.64 693.719 3.64C693.915 3.64 694.12 3.654 694.335 3.682C694.55 3.71 694.727 3.75667 694.867 3.822V4.97C694.755 4.92333 694.615 4.886 694.447 4.858C694.288 4.82067 694.125 4.802 693.957 4.802C693.686 4.802 693.453 4.858 693.257 4.97C693.061 5.07267 692.907 5.23133 692.795 5.446C692.692 5.66067 692.641 5.936 692.641 6.272V7.224L692.431 6.944H694.559V8.036H692.655V14H691.241ZM698.449 14.126C697.6 14.126 696.96 13.8973 696.531 13.44C696.111 12.9733 695.901 12.2593 695.901 11.298V6.944H697.315V11.27C697.315 11.858 697.436 12.292 697.679 12.572C697.922 12.852 698.29 12.992 698.785 12.992C699.345 12.992 699.798 12.8053 700.143 12.432C700.488 12.0587 700.661 11.564 700.661 10.948V6.944H702.075V14H700.703V12.488H700.885C700.689 13.0107 700.376 13.4167 699.947 13.706C699.518 13.986 699.018 14.126 698.449 14.126ZM704.346 14V8.638C704.346 8.36733 704.332 8.092 704.304 7.812C704.286 7.52267 704.262 7.23333 704.234 6.944H705.606L705.732 8.428H705.564C705.779 7.90533 706.11 7.50867 706.558 7.238C707.006 6.958 707.524 6.818 708.112 6.818C708.943 6.818 709.568 7.04667 709.988 7.504C710.418 7.96133 710.632 8.67067 710.632 9.632V14H709.218V9.716C709.218 9.09067 709.092 8.64267 708.84 8.372C708.598 8.092 708.224 7.952 707.72 7.952C707.123 7.952 706.647 8.13867 706.292 8.512C705.938 8.876 705.76 9.37067 705.76 9.996V14H704.346ZM712.635 14V12.334H714.301V14H712.635ZM719.174 14.126C718.465 14.126 717.844 13.9813 717.312 13.692C716.789 13.3933 716.383 12.9687 716.094 12.418C715.814 11.858 715.674 11.1953 715.674 10.43C715.674 9.674 715.819 9.02533 716.108 8.484C716.397 7.94267 716.803 7.532 717.326 7.252C717.849 6.96267 718.465 6.818 719.174 6.818C719.631 6.818 720.075 6.89733 720.504 7.056C720.933 7.20533 721.288 7.42 721.568 7.7L721.106 8.694C720.845 8.442 720.551 8.25533 720.224 8.134C719.897 8.00333 719.58 7.938 719.272 7.938C718.6 7.938 718.073 8.15267 717.69 8.582C717.307 9.01133 717.116 9.632 717.116 10.444C717.116 11.2653 717.307 11.8953 717.69 12.334C718.073 12.7727 718.6 12.992 719.272 12.992C719.571 12.992 719.883 12.936 720.21 12.824C720.537 12.7027 720.835 12.5113 721.106 12.25L721.568 13.244C721.279 13.524 720.915 13.7433 720.476 13.902C720.047 14.0513 719.613 14.126 719.174 14.126ZM726.154 14.126C725.454 14.126 724.847 13.9813 724.334 13.692C723.82 13.3933 723.424 12.9733 723.144 12.432C722.864 11.8813 722.724 11.228 722.724 10.472C722.724 9.716 722.864 9.06733 723.144 8.526C723.424 7.97533 723.82 7.55533 724.334 7.266C724.847 6.96733 725.454 6.818 726.154 6.818C726.854 6.818 727.46 6.96733 727.974 7.266C728.496 7.55533 728.898 7.97533 729.178 8.526C729.467 9.06733 729.612 9.716 729.612 10.472C729.612 11.228 729.467 11.8813 729.178 12.432C728.898 12.9733 728.496 13.3933 727.974 13.692C727.46 13.9813 726.854 14.126 726.154 14.126ZM726.154 13.02C726.77 13.02 727.26 12.8053 727.624 12.376C727.988 11.9467 728.17 11.312 728.17 10.472C728.17 9.632 727.988 9.002 727.624 8.582C727.26 8.15267 726.77 7.938 726.154 7.938C725.547 7.938 725.062 8.15267 724.698 8.582C724.334 9.002 724.152 9.632 724.152 10.472C724.152 11.312 724.329 11.9467 724.684 12.376C725.048 12.8053 725.538 13.02 726.154 13.02ZM731.465 14V8.638C731.465 8.36733 731.451 8.092 731.423 7.812C731.404 7.52267 731.381 7.23333 731.353 6.944H732.725L732.851 8.428H732.683C732.879 7.91467 733.177 7.518 733.579 7.238C733.989 6.958 734.479 6.818 735.049 6.818C735.627 6.818 736.099 6.958 736.463 7.238C736.836 7.50867 737.093 7.92867 737.233 8.498H737.009C737.195 7.98467 737.513 7.57867 737.961 7.28C738.409 6.972 738.927 6.818 739.515 6.818C740.299 6.818 740.887 7.04667 741.279 7.504C741.671 7.96133 741.867 8.67067 741.867 9.632V14H740.453V9.702C740.453 9.086 740.345 8.64267 740.131 8.372C739.925 8.092 739.589 7.952 739.123 7.952C738.581 7.952 738.152 8.13867 737.835 8.512C737.517 8.88533 737.359 9.38933 737.359 10.024V14H735.945V9.702C735.945 9.086 735.837 8.64267 735.623 8.372C735.417 8.092 735.081 7.952 734.615 7.952C734.073 7.952 733.649 8.13867 733.341 8.512C733.033 8.88533 732.879 9.38933 732.879 10.024V14H731.465Z" fill="#373F41"/>
<path d="M363.208 14V4.13H367.394C368.448 4.13 369.256 4.38667 369.816 4.9C370.385 5.404 370.67 6.104 370.67 7C370.67 7.896 370.385 8.60067 369.816 9.114C369.256 9.62733 368.448 9.884 367.394 9.884H364.664V14H363.208ZM364.664 8.722H367.24C367.902 8.722 368.402 8.57267 368.738 8.274C369.074 7.97533 369.242 7.55067 369.242 7C369.242 6.45867 369.074 6.03867 368.738 5.74C368.402 5.44133 367.902 5.292 367.24 5.292H364.664V8.722ZM372.332 14V8.694C372.332 8.40467 372.322 8.11533 372.304 7.826C372.294 7.52733 372.276 7.23333 372.248 6.944H373.62L373.774 8.764H373.55C373.643 8.32533 373.802 7.96133 374.026 7.672C374.25 7.38267 374.52 7.168 374.838 7.028C375.164 6.888 375.505 6.818 375.86 6.818C376.009 6.818 376.135 6.82733 376.238 6.846C376.34 6.85533 376.443 6.874 376.546 6.902L376.532 8.162C376.373 8.09667 376.233 8.05933 376.112 8.05C376 8.03133 375.86 8.022 375.692 8.022C375.281 8.022 374.931 8.11533 374.642 8.302C374.352 8.47933 374.133 8.722 373.984 9.03C373.834 9.338 373.76 9.66933 373.76 10.024V14H372.332ZM377.837 14V6.944H379.251V14H377.837ZM377.725 5.474V4.004H379.363V5.474H377.725ZM383.595 14L380.571 6.944H382.083L384.463 12.838H384.057L386.479 6.944H387.921L384.883 14H383.595ZM391.808 14.126C391.183 14.126 390.637 13.9813 390.17 13.692C389.704 13.4027 389.34 12.9827 389.078 12.432C388.826 11.8813 388.7 11.228 388.7 10.472C388.7 9.70667 388.826 9.05333 389.078 8.512C389.34 7.97067 389.704 7.55533 390.17 7.266C390.637 6.96733 391.183 6.818 391.808 6.818C392.424 6.818 392.961 6.972 393.418 7.28C393.876 7.588 394.179 8.008 394.328 8.54H394.174L394.314 6.944H395.686C395.658 7.23333 395.63 7.52267 395.602 7.812C395.584 8.092 395.574 8.36733 395.574 8.638V14H394.16V12.432H394.314C394.165 12.9547 393.857 13.37 393.39 13.678C392.933 13.9767 392.406 14.126 391.808 14.126ZM392.158 13.02C392.765 13.02 393.25 12.8053 393.614 12.376C393.988 11.9467 394.174 11.312 394.174 10.472C394.174 9.632 393.988 9.002 393.614 8.582C393.25 8.15267 392.765 7.938 392.158 7.938C391.542 7.938 391.048 8.15267 390.674 8.582C390.31 9.002 390.128 9.632 390.128 10.472C390.128 11.312 390.31 11.9467 390.674 12.376C391.038 12.8053 391.533 13.02 392.158 13.02ZM400.932 14.126C400.222 14.126 399.602 13.9813 399.07 13.692C398.547 13.3933 398.141 12.9687 397.852 12.418C397.572 11.858 397.432 11.1953 397.432 10.43C397.432 9.674 397.576 9.02533 397.866 8.484C398.155 7.94267 398.561 7.532 399.084 7.252C399.606 6.96267 400.222 6.818 400.932 6.818C401.389 6.818 401.832 6.89733 402.262 7.056C402.691 7.20533 403.046 7.42 403.326 7.7L402.864 8.694C402.602 8.442 402.308 8.25533 401.982 8.134C401.655 8.00333 401.338 7.938 401.03 7.938C400.358 7.938 399.83 8.15267 399.448 8.582C399.065 9.01133 398.874 9.632 398.874 10.444C398.874 11.2653 399.065 11.8953 399.448 12.334C399.83 12.7727 400.358 12.992 401.03 12.992C401.328 12.992 401.641 12.936 401.968 12.824C402.294 12.7027 402.593 12.5113 402.864 12.25L403.326 13.244C403.036 13.524 402.672 13.7433 402.234 13.902C401.804 14.0513 401.37 14.126 400.932 14.126ZM404.896 17.178L404.56 16.03C404.999 15.9367 405.363 15.8247 405.652 15.694C405.951 15.5633 406.198 15.3907 406.394 15.176C406.59 14.9707 406.758 14.7047 406.898 14.378L407.248 13.552L407.22 14.126L404.154 6.944H405.666L408.046 12.824H407.668L410.048 6.944H411.504L408.27 14.504C408.065 14.9707 407.845 15.3627 407.612 15.68C407.379 15.9973 407.127 16.254 406.856 16.45C406.585 16.646 406.287 16.8 405.96 16.912C405.633 17.024 405.279 17.1127 404.896 17.178ZM416.87 14V4.13H421.056C422.111 4.13 422.918 4.38667 423.478 4.9C424.048 5.404 424.332 6.104 424.332 7C424.332 7.896 424.048 8.60067 423.478 9.114C422.918 9.62733 422.111 9.884 421.056 9.884H418.326V14H416.87ZM418.326 8.722H420.902C421.565 8.722 422.064 8.57267 422.4 8.274C422.736 7.97533 422.904 7.55067 422.904 7C422.904 6.45867 422.736 6.03867 422.4 5.74C422.064 5.44133 421.565 5.292 420.902 5.292H418.326V8.722ZM428.855 14.126C428.155 14.126 427.548 13.9813 427.035 13.692C426.522 13.3933 426.125 12.9733 425.845 12.432C425.565 11.8813 425.425 11.228 425.425 10.472C425.425 9.716 425.565 9.06733 425.845 8.526C426.125 7.97533 426.522 7.55533 427.035 7.266C427.548 6.96733 428.155 6.818 428.855 6.818C429.555 6.818 430.162 6.96733 430.675 7.266C431.198 7.55533 431.599 7.97533 431.879 8.526C432.168 9.06733 432.313 9.716 432.313 10.472C432.313 11.228 432.168 11.8813 431.879 12.432C431.599 12.9733 431.198 13.3933 430.675 13.692C430.162 13.9813 429.555 14.126 428.855 14.126ZM428.855 13.02C429.471 13.02 429.961 12.8053 430.325 12.376C430.689 11.9467 430.871 11.312 430.871 10.472C430.871 9.632 430.689 9.002 430.325 8.582C429.961 8.15267 429.471 7.938 428.855 7.938C428.248 7.938 427.763 8.15267 427.399 8.582C427.035 9.002 426.853 9.632 426.853 10.472C426.853 11.312 427.03 11.9467 427.385 12.376C427.749 12.8053 428.239 13.02 428.855 13.02ZM434.166 14V3.696H435.58V14H434.166ZM437.852 14V6.944H439.266V14H437.852ZM437.74 5.474V4.004H439.378V5.474H437.74ZM444.632 14.126C443.923 14.126 443.302 13.9813 442.77 13.692C442.248 13.3933 441.842 12.9687 441.552 12.418C441.272 11.858 441.132 11.1953 441.132 10.43C441.132 9.674 441.277 9.02533 441.566 8.484C441.856 7.94267 442.262 7.532 442.784 7.252C443.307 6.96267 443.923 6.818 444.632 6.818C445.09 6.818 445.533 6.89733 445.962 7.056C446.392 7.20533 446.746 7.42 447.026 7.7L446.564 8.694C446.303 8.442 446.009 8.25533 445.682 8.134C445.356 8.00333 445.038 7.938 444.73 7.938C444.058 7.938 443.531 8.15267 443.148 8.582C442.766 9.01133 442.574 9.632 442.574 10.444C442.574 11.2653 442.766 11.8953 443.148 12.334C443.531 12.7727 444.058 12.992 444.73 12.992C445.029 12.992 445.342 12.936 445.668 12.824C445.995 12.7027 446.294 12.5113 446.564 12.25L447.026 13.244C446.737 13.524 446.373 13.7433 445.934 13.902C445.505 14.0513 445.071 14.126 444.632 14.126ZM448.597 17.178L448.261 16.03C448.699 15.9367 449.063 15.8247 449.353 15.694C449.651 15.5633 449.899 15.3907 450.095 15.176C450.291 14.9707 450.459 14.7047 450.599 14.378L450.949 13.552L450.921 14.126L447.855 6.944H449.367L451.747 12.824H451.369L453.749 6.944H455.205L451.971 14.504C451.765 14.9707 451.546 15.3627 451.313 15.68C451.079 15.9973 450.827 16.254 450.557 16.45C450.286 16.646 449.987 16.8 449.661 16.912C449.334 17.024 448.979 17.1127 448.597 17.178ZM470.884 14V5.348H467.51V4.13H475.714V5.348H472.34V14H470.884ZM479.332 14.126C478.194 14.126 477.298 13.804 476.644 13.16C475.991 12.516 475.664 11.6247 475.664 10.486C475.664 9.74867 475.804 9.10467 476.084 8.554C476.374 8.00333 476.77 7.57867 477.274 7.28C477.788 6.972 478.38 6.818 479.052 6.818C479.715 6.818 480.27 6.958 480.718 7.238C481.166 7.518 481.507 7.91467 481.74 8.428C481.974 8.932 482.09 9.52933 482.09 10.22V10.668H476.77V9.856H481.124L480.886 10.038C480.886 9.338 480.728 8.79667 480.41 8.414C480.102 8.022 479.654 7.826 479.066 7.826C478.413 7.826 477.909 8.05467 477.554 8.512C477.2 8.96 477.022 9.58067 477.022 10.374V10.514C477.022 11.3447 477.223 11.97 477.624 12.39C478.035 12.81 478.614 13.02 479.36 13.02C479.771 13.02 480.154 12.964 480.508 12.852C480.872 12.7307 481.218 12.5347 481.544 12.264L482.006 13.23C481.68 13.5193 481.283 13.7433 480.816 13.902C480.35 14.0513 479.855 14.126 479.332 14.126ZM483.885 14V8.694C483.885 8.40467 483.876 8.11533 483.857 7.826C483.848 7.52733 483.829 7.23333 483.801 6.944H485.173L485.327 8.764H485.103C485.196 8.32533 485.355 7.96133 485.579 7.672C485.803 7.38267 486.074 7.168 486.391 7.028C486.718 6.888 487.058 6.818 487.413 6.818C487.562 6.818 487.688 6.82733 487.791 6.846C487.894 6.85533 487.996 6.874 488.099 6.902L488.085 8.162C487.926 8.09667 487.786 8.05933 487.665 8.05C487.553 8.03133 487.413 8.022 487.245 8.022C486.834 8.022 486.484 8.11533 486.195 8.302C485.906 8.47933 485.686 8.722 485.537 9.03C485.388 9.338 485.313 9.66933 485.313 10.024V14H483.885ZM489.39 14V8.638C489.39 8.36733 489.376 8.092 489.348 7.812C489.33 7.52267 489.306 7.23333 489.278 6.944H490.65L490.776 8.428H490.608C490.804 7.91467 491.103 7.518 491.504 7.238C491.915 6.958 492.405 6.818 492.974 6.818C493.553 6.818 494.024 6.958 494.388 7.238C494.762 7.50867 495.018 7.92867 495.158 8.498H494.934C495.121 7.98467 495.438 7.57867 495.886 7.28C496.334 6.972 496.852 6.818 497.44 6.818C498.224 6.818 498.812 7.04667 499.204 7.504C499.596 7.96133 499.792 8.67067 499.792 9.632V14H498.378V9.702C498.378 9.086 498.271 8.64267 498.056 8.372C497.851 8.092 497.515 7.952 497.048 7.952C496.507 7.952 496.078 8.13867 495.76 8.512C495.443 8.88533 495.284 9.38933 495.284 10.024V14H493.87V9.702C493.87 9.086 493.763 8.64267 493.548 8.372C493.343 8.092 493.007 7.952 492.54 7.952C491.999 7.952 491.574 8.13867 491.266 8.512C490.958 8.88533 490.804 9.38933 490.804 10.024V14H489.39ZM504.44 14.126C503.852 14.126 503.311 14.0513 502.816 13.902C502.321 13.7527 501.911 13.5427 501.584 13.272L502.018 12.306C502.363 12.5673 502.746 12.7633 503.166 12.894C503.586 13.0247 504.015 13.09 504.454 13.09C504.967 13.09 505.355 13.0013 505.616 12.824C505.877 12.6373 506.008 12.3853 506.008 12.068C506.008 11.8253 505.924 11.6293 505.756 11.48C505.597 11.3307 505.331 11.2187 504.958 11.144L503.614 10.878C503.017 10.7473 502.564 10.5233 502.256 10.206C501.948 9.88867 501.794 9.48267 501.794 8.988C501.794 8.568 501.906 8.19467 502.13 7.868C502.363 7.54133 502.69 7.28467 503.11 7.098C503.539 6.91133 504.039 6.818 504.608 6.818C505.131 6.818 505.616 6.89267 506.064 7.042C506.512 7.19133 506.885 7.406 507.184 7.686L506.736 8.624C506.447 8.38133 506.12 8.19467 505.756 8.064C505.392 7.924 505.023 7.854 504.65 7.854C504.127 7.854 503.74 7.952 503.488 8.148C503.236 8.344 503.11 8.60067 503.11 8.918C503.11 9.16067 503.185 9.36133 503.334 9.52C503.493 9.66933 503.74 9.786 504.076 9.87L505.42 10.136C506.055 10.2667 506.531 10.4813 506.848 10.78C507.165 11.0787 507.324 11.48 507.324 11.984C507.324 12.4227 507.203 12.8053 506.96 13.132C506.717 13.4587 506.381 13.706 505.952 13.874C505.523 14.042 505.019 14.126 504.44 14.126ZM516.147 14.126C515.447 14.126 514.84 13.9813 514.327 13.692C513.814 13.3933 513.417 12.9733 513.137 12.432C512.857 11.8813 512.717 11.228 512.717 10.472C512.717 9.716 512.857 9.06733 513.137 8.526C513.417 7.97533 513.814 7.55533 514.327 7.266C514.84 6.96733 515.447 6.818 516.147 6.818C516.847 6.818 517.454 6.96733 517.967 7.266C518.49 7.55533 518.891 7.97533 519.171 8.526C519.46 9.06733 519.605 9.716 519.605 10.472C519.605 11.228 519.46 11.8813 519.171 12.432C518.891 12.9733 518.49 13.3933 517.967 13.692C517.454 13.9813 516.847 14.126 516.147 14.126ZM516.147 13.02C516.763 13.02 517.253 12.8053 517.617 12.376C517.981 11.9467 518.163 11.312 518.163 10.472C518.163 9.632 517.981 9.002 517.617 8.582C517.253 8.15267 516.763 7.938 516.147 7.938C515.54 7.938 515.055 8.15267 514.691 8.582C514.327 9.002 514.145 9.632 514.145 10.472C514.145 11.312 514.322 11.9467 514.677 12.376C515.041 12.8053 515.531 13.02 516.147 13.02ZM521.81 14V8.036H520.438V6.944H522.202L521.81 7.308V6.188C521.81 5.35733 522.02 4.72733 522.44 4.298C522.86 3.85933 523.476 3.64 524.288 3.64C524.484 3.64 524.689 3.654 524.904 3.682C525.118 3.71 525.296 3.75667 525.436 3.822V4.97C525.324 4.92333 525.184 4.886 525.016 4.858C524.857 4.82067 524.694 4.802 524.526 4.802C524.255 4.802 524.022 4.858 523.826 4.97C523.63 5.07267 523.476 5.23133 523.364 5.446C523.261 5.66067 523.21 5.936 523.21 6.272V7.224L523 6.944H525.128V8.036H523.224V14H521.81ZM533.902 14.126C533.109 14.126 532.39 14.028 531.746 13.832C531.102 13.6267 530.542 13.3373 530.066 12.964L530.556 11.816C530.873 12.0587 531.2 12.2593 531.536 12.418C531.881 12.5767 532.245 12.698 532.628 12.782C533.02 12.8567 533.445 12.894 533.902 12.894C534.686 12.894 535.26 12.754 535.624 12.474C535.997 12.194 536.184 11.8253 536.184 11.368C536.184 10.976 536.053 10.6727 535.792 10.458C535.54 10.2433 535.092 10.0707 534.448 9.94L532.922 9.632C532.017 9.44533 531.34 9.142 530.892 8.722C530.453 8.29267 530.234 7.70933 530.234 6.972C530.234 6.37467 530.393 5.852 530.71 5.404C531.027 4.956 531.466 4.61067 532.026 4.368C532.595 4.12533 533.258 4.004 534.014 4.004C534.714 4.004 535.358 4.10667 535.946 4.312C536.534 4.508 537.029 4.802 537.43 5.194L536.954 6.3C536.534 5.936 536.086 5.67 535.61 5.502C535.134 5.32467 534.593 5.236 533.986 5.236C533.267 5.236 532.703 5.38533 532.292 5.684C531.891 5.98267 531.69 6.38867 531.69 6.902C531.69 7.31267 531.816 7.63467 532.068 7.868C532.329 8.10133 532.759 8.27867 533.356 8.4L534.882 8.694C535.825 8.89 536.52 9.19333 536.968 9.604C537.416 10.0053 537.64 10.5607 537.64 11.27C537.64 11.8393 537.486 12.3387 537.178 12.768C536.879 13.1973 536.45 13.5333 535.89 13.776C535.33 14.0093 534.667 14.126 533.902 14.126ZM542.765 14.126C541.626 14.126 540.73 13.804 540.077 13.16C539.424 12.516 539.097 11.6247 539.097 10.486C539.097 9.74867 539.237 9.10467 539.517 8.554C539.806 8.00333 540.203 7.57867 540.707 7.28C541.22 6.972 541.813 6.818 542.485 6.818C543.148 6.818 543.703 6.958 544.151 7.238C544.599 7.518 544.94 7.91467 545.173 8.428C545.406 8.932 545.523 9.52933 545.523 10.22V10.668H540.203V9.856H544.557L544.319 10.038C544.319 9.338 544.16 8.79667 543.843 8.414C543.535 8.022 543.087 7.826 542.499 7.826C541.846 7.826 541.342 8.05467 540.987 8.512C540.632 8.96 540.455 9.58067 540.455 10.374V10.514C540.455 11.3447 540.656 11.97 541.057 12.39C541.468 12.81 542.046 13.02 542.793 13.02C543.204 13.02 543.586 12.964 543.941 12.852C544.305 12.7307 544.65 12.5347 544.977 12.264L545.439 13.23C545.112 13.5193 544.716 13.7433 544.249 13.902C543.782 14.0513 543.288 14.126 542.765 14.126ZM547.318 14V8.694C547.318 8.40467 547.308 8.11533 547.29 7.826C547.28 7.52733 547.262 7.23333 547.234 6.944H548.606L548.76 8.764H548.536C548.629 8.32533 548.788 7.96133 549.012 7.672C549.236 7.38267 549.506 7.168 549.824 7.028C550.15 6.888 550.491 6.818 550.846 6.818C550.995 6.818 551.121 6.82733 551.224 6.846C551.326 6.85533 551.429 6.874 551.532 6.902L551.518 8.162C551.359 8.09667 551.219 8.05933 551.098 8.05C550.986 8.03133 550.846 8.022 550.678 8.022C550.267 8.022 549.917 8.11533 549.628 8.302C549.338 8.47933 549.119 8.722 548.97 9.03C548.82 9.338 548.746 9.66933 548.746 10.024V14H547.318ZM555.319 14L552.295 6.944H553.807L556.187 12.838H555.781L558.203 6.944H559.645L556.607 14H555.319ZM560.966 14V6.944H562.38V14H560.966ZM560.854 5.474V4.004H562.492V5.474H560.854ZM567.747 14.126C567.037 14.126 566.417 13.9813 565.885 13.692C565.362 13.3933 564.956 12.9687 564.667 12.418C564.387 11.858 564.247 11.1953 564.247 10.43C564.247 9.674 564.391 9.02533 564.681 8.484C564.97 7.94267 565.376 7.532 565.899 7.252C566.421 6.96267 567.037 6.818 567.747 6.818C568.204 6.818 568.647 6.89733 569.077 7.056C569.506 7.20533 569.861 7.42 570.141 7.7L569.679 8.694C569.417 8.442 569.123 8.25533 568.797 8.134C568.47 8.00333 568.153 7.938 567.845 7.938C567.173 7.938 566.645 8.15267 566.263 8.582C565.88 9.01133 565.689 9.632 565.689 10.444C565.689 11.2653 565.88 11.8953 566.263 12.334C566.645 12.7727 567.173 12.992 567.845 12.992C568.143 12.992 568.456 12.936 568.783 12.824C569.109 12.7027 569.408 12.5113 569.679 12.25L570.141 13.244C569.851 13.524 569.487 13.7433 569.049 13.902C568.619 14.0513 568.185 14.126 567.747 14.126ZM574.964 14.126C573.826 14.126 572.93 13.804 572.276 13.16C571.623 12.516 571.296 11.6247 571.296 10.486C571.296 9.74867 571.436 9.10467 571.716 8.554C572.006 8.00333 572.402 7.57867 572.906 7.28C573.42 6.972 574.012 6.818 574.684 6.818C575.347 6.818 575.902 6.958 576.35 7.238C576.798 7.518 577.139 7.91467 577.372 8.428C577.606 8.932 577.722 9.52933 577.722 10.22V10.668H572.402V9.856H576.756L576.518 10.038C576.518 9.338 576.36 8.79667 576.042 8.414C575.734 8.022 575.286 7.826 574.698 7.826C574.045 7.826 573.541 8.05467 573.186 8.512C572.832 8.96 572.654 9.58067 572.654 10.374V10.514C572.654 11.3447 572.855 11.97 573.256 12.39C573.667 12.81 574.246 13.02 574.992 13.02C575.403 13.02 575.786 12.964 576.14 12.852C576.504 12.7307 576.85 12.5347 577.176 12.264L577.638 13.23C577.312 13.5193 576.915 13.7433 576.448 13.902C575.982 14.0513 575.487 14.126 574.964 14.126Z" fill="#001AFF"/>
</svg>
